<svg xmlns="http://www.w3.org/2000/svg" viewBox="0 0 640 300" fill="none">
  <!-- پس‌زمینه نرم -->
  <circle cx="54" cy="54" r="118" fill="#5FAF8F" opacity="0.14"/>
  <circle cx="600" cy="258" r="108" fill="#174A46" opacity="0.07"/>
  <circle cx="120" cy="230" r="6" fill="#5FAF8F" opacity="0.35"/>
  <circle cx="560" cy="66" r="5" fill="#174A46" opacity="0.16"/>
  <circle cx="490" cy="230" r="4" fill="#5FAF8F" opacity="0.3"/>

  <!-- حباب گفتگو با خط پالس -->
  <rect x="210" y="70" width="240" height="128" rx="26" fill="#FFFFFF" stroke="#5FAF8F" stroke-width="3"/>
  <path d="M 236 198 l 14 -30 h 16" fill="#FFFFFF" stroke="#5FAF8F" stroke-width="3" stroke-linejoin="round"/>
  <path d="M 270 118 h 14 l 7 -14 l 10 26 l 8 -18 l 6 6 h 16" stroke="#174A46" stroke-width="4" stroke-linecap="round" stroke-linejoin="round" fill="none"/>
  <path d="M 236 150 h 38" stroke="#174A46" opacity="0.16" stroke-width="5" stroke-linecap="round"/>
  <path d="M 236 172 h 60" stroke="#174A46" opacity="0.1" stroke-width="5" stroke-linecap="round"/>

  <!-- گوشی / استتوسکوپ -->
  <circle cx="140" cy="90" r="46" fill="#FFFFFF" stroke="#5FAF8F" stroke-width="4"/>
  <g transform="translate(121 70) scale(1.55)">
    <path d="M 12 4.4 a 5.1 5.1 0 0 1 5.1 5.1 v 3.5 l 1.7 2.7 H 5.2 l 1.7 -2.7 V 9.5 A 5.1 5.1 0 0 1 12 4.4 Z" stroke="#174A46" stroke-width="1.6" stroke-linecap="round" stroke-linejoin="round"/>
    <path d="M 10.1 18.7 a 2 2 0 0 0 3.8 0" stroke="#5FAF8F" stroke-width="1.8" stroke-linecap="round"/>
  </g>

  <!-- نبض قلب -->
  <path d="M 470 120 l 34 -46 l 22 20 l 36 -46 l 1 56" stroke="#5FAF8F" stroke-width="5" stroke-linecap="round" stroke-linejoin="round" fill="none"/>
  <circle cx="544" cy="104" r="10" fill="#174A46"/>

  <!-- تقویم قرار ملاقات -->
  <circle cx="470" cy="216" r="44" fill="#FFFFFF" stroke="#5FAF8F" stroke-width="4"/>
  <g transform="translate(451 197) scale(1.55)">
    <rect x="3.5" y="5" width="17" height="15.5" rx="3" stroke="#174A46" stroke-width="1.6" stroke-linecap="round" stroke-linejoin="round"/>
    <path d="M 8 2.8 V 7.4 M 16 2.8 V 7.4 M 3.5 9.8 h 17" stroke="#174A46" stroke-width="1.6" stroke-linecap="round"/>
    <path d="M 9.5 14.4 l 2 2 l 3.4 -3.8" stroke="#5FAF8F" stroke-width="1.8" stroke-linecap="round" stroke-linejoin="round"/>
  </g>
</svg>
