<svg xmlns="http://www.w3.org/2000/svg" viewBox="0 0 640 300" fill="none">
  <!-- پس‌زمینه نرم -->
  <circle cx="66" cy="52" r="120" fill="#5FAF8F" opacity="0.15"/>
  <circle cx="600" cy="258" r="112" fill="#174A46" opacity="0.08"/>
  <circle cx="566" cy="66" r="6" fill="#5FAF8F" opacity="0.3"/>
  <circle cx="104" cy="196" r="5" fill="#174A46" opacity="0.16"/>

  <!-- پنل مرکز درمانی -->
  <rect x="250" y="64" width="196" height="190" rx="20" fill="#FFFFFF" stroke="#174A46" stroke-width="3" stroke-opacity="0.22"/>

  <!-- ساختمان مرکز درمانی -->
  <rect x="268" y="132" width="56" height="84" rx="9" stroke="#174A46" stroke-width="3.4"/>
  <circle cx="296" cy="112" r="15" fill="#5FAF8F"/>
  <path d="M 291 112 h 10 M 296 107 v 10" stroke="#FFFFFF" stroke-width="2.4" stroke-linecap="round"/>
  <rect x="278" y="150" width="13" height="13" rx="3" fill="#DCEFE4" stroke="#174A46" stroke-opacity="0.25" stroke-width="2"/>
  <rect x="301" y="150" width="13" height="13" rx="3" fill="#DCEFE4" stroke="#174A46" stroke-opacity="0.25" stroke-width="2"/>
  <path d="M 285 216 v -16 a 11 11 0 0 1 22 0 v 16" stroke="#174A46" stroke-width="3"/>

  <!-- رشد و گسترش -->
  <rect x="366" y="200" width="70" height="3" rx="1.5" fill="#174A46" opacity="0.2"/>
  <rect x="370" y="182" width="10" height="21" rx="5" fill="#DCEFE4"/>
  <rect x="389" y="168" width="10" height="35" rx="5" fill="#5FAF8F" opacity="0.85"/>
  <rect x="408" y="152" width="10" height="51" rx="5" fill="#174A46" opacity="0.7"/>
  <path d="M 366 142 L 390 124 L 402 132 L 424 104" stroke="#5FAF8F" stroke-width="4.4" stroke-linecap="round" stroke-linejoin="round"/>
  <path d="M 424 104 l -9 -3 l 3 10 Z" fill="#174A46"/>

  <!-- نشان ساختمان -->
  <circle cx="184" cy="92" r="40" fill="#FFFFFF" stroke="#5FAF8F" stroke-width="4"/>
  <g transform="translate(167 73) scale(1.4)">
    <path d="M 4.6 7.6 L 12 2.6 L 19.4 7.6" stroke="#174A46" stroke-width="1.7" stroke-linecap="round" stroke-linejoin="round"/>
    <rect x="6" y="8.4" width="12" height="12.6" rx="2" stroke="#174A46" stroke-width="1.7"/>
    <path d="M 10.2 21 v -4 a 1.8 1.8 0 0 1 3.6 0 v 4" stroke="#174A46" stroke-width="1.4" stroke-linecap="round"/>
  </g>

  <!-- نشان رشد -->
  <circle cx="502" cy="210" r="38" fill="#FFFFFF" stroke="#5FAF8F" stroke-width="4"/>
  <g transform="translate(483 191) scale(1.55)">
    <path d="M 3.5 17.5 h 17" stroke="#174A46" stroke-width="1.6" stroke-linecap="round"/>
    <path d="M 6 14 l 3.5 -4 l 3 2.5 l 4.5 -5.5" stroke="#174A46" stroke-width="1.6" stroke-linecap="round" stroke-linejoin="round"/>
    <path d="M 13.5 7 h 3.5 v 3.5" stroke="#174A46" stroke-width="1.6" stroke-linecap="round" stroke-linejoin="round"/>
  </g>

  <!-- شبکه سازمان‌ها -->
  <circle cx="132" cy="238" r="10" fill="#FFFFFF" stroke="#5FAF8F" stroke-width="3.2"/>
  <circle cx="168" cy="238" r="10" fill="#5FAF8F"/>
  <path d="M 143 235 L 157 235" stroke="#5FAF8F" stroke-width="3" stroke-linecap="round"/>
  <circle cx="202" cy="224" r="8" fill="#FFFFFF" stroke="#174A46" stroke-width="3"/>
</svg>
